<svg xmlns="http://www.w3.org/2000/svg" viewBox="0 0 180 180" width="180" height="180">
<defs>
<linearGradient id="bg" x1="0" y1="0" x2="1" y2="1"><stop offset="0" stop-color="#7B4DFF"/><stop offset=".55" stop-color="#4A22C9"/><stop offset="1" stop-color="#22106B"/></linearGradient>
<radialGradient id="hl" cx="75%" cy="15%" r="70%"><stop offset="0" stop-color="#FF7AD9" stop-opacity=".55"/><stop offset="1" stop-color="#FF7AD9" stop-opacity="0"/></radialGradient>
<linearGradient id="win" x1="0" y1="0" x2="0" y2="1"><stop offset="0" stop-color="#FFFFFF"/><stop offset="1" stop-color="#E9E2FF"/></linearGradient>
<linearGradient id="bar" x1="0" y1="0" x2="1" y2="0"><stop offset="0" stop-color="#FF7AB8"/><stop offset="1" stop-color="#8C5BFF"/></linearGradient>
<linearGradient id="wand" x1="0" y1="0" x2="1" y2="0"><stop offset="0" stop-color="#4A4466"/><stop offset=".5" stop-color="#2A2540"/><stop offset="1" stop-color="#14111F"/></linearGradient>
<radialGradient id="star" cx="50%" cy="45%" r="55%"><stop offset="0" stop-color="#FFFBE6"/><stop offset=".6" stop-color="#FFD84D"/><stop offset="1" stop-color="#FFA81E"/></radialGradient>
<linearGradient id="trail" x1="0" y1="0" x2="1" y2="0"><stop offset="0" stop-color="#FFE27A" stop-opacity="0"/><stop offset="1" stop-color="#FFE27A" stop-opacity=".9"/></linearGradient>
<filter id="sh" x="-30%" y="-30%" width="160%" height="170%"><feDropShadow dx="0" dy="8" stdDeviation="7" flood-color="#12063F" flood-opacity=".55"/></filter>
<filter id="glow" x="-80%" y="-80%" width="260%" height="260%"><feGaussianBlur stdDeviation="6"/></filter>
</defs>
<rect width="180" height="180" fill="url(#bg)"/>
<rect width="180" height="180" fill="url(#hl)"/>
<g transform="translate(4 0)">
<rect x="30" y="46" width="112" height="88" rx="16" fill="url(#win)" filter="url(#sh)"/>
<path d="M46 46 H126 A16 16 0 0 1 142 62 V66 H30 V62 A16 16 0 0 1 46 46Z" fill="url(#bar)"/>
<circle cx="43" cy="56" r="3.6" fill="#fff" opacity=".95"/><circle cx="54" cy="56" r="3.6" fill="#fff" opacity=".75"/><circle cx="65" cy="56" r="3.6" fill="#fff" opacity=".55"/>
<rect x="42" y="78" width="40" height="32" rx="7" fill="#C9B8FF"/>
<path d="M46 106 L58 92 L66 100 L72 94 L80 106Z" fill="#9C7BFF"/>
<circle cx="72" cy="86" r="4" fill="#fff" opacity=".8"/>
<rect x="90" y="80" width="38" height="7" rx="3.5" fill="#8C5BFF"/>
<rect x="90" y="93" width="28" height="7" rx="3.5" fill="#D6CBFF"/>
<rect x="90" y="106" width="20" height="7" rx="3.5" fill="#D6CBFF"/>
<rect x="42" y="119" width="60" height="6" rx="3" fill="#E4DCFF"/>
</g>
</svg>
